<?xml version="1.0" standalone="no"?>
<!DOCTYPE svg PUBLIC "-//W3C//DTD SVG 20010904//EN"
 "http://www.w3.org/TR/2001/REC-SVG-20010904/DTD/svg10.dtd">
<svg version="1.0" xmlns="http://www.w3.org/2000/svg"
 width="1277.000000pt" height="1278.000000pt" viewBox="0 0 1277.000000 1278.000000"
 preserveAspectRatio="xMidYMid meet">

<g transform="translate(0.000000,1278.000000) scale(0.100000,-0.100000)"
fill="#000000" stroke="none">
<path d="M0 6390 l0 -6390 994 0 993 0 12 61 c9 46 10 68 1 89 -9 22 -6 46 15
131 19 75 25 117 21 151 -4 28 -2 49 4 53 18 11 2 22 -27 19 -41 -4 -43 2 -23
54 32 81 82 250 78 262 -2 6 -33 -12 -72 -42 -101 -78 -129 -98 -134 -94 -3 4
62 101 210 313 26 38 48 71 48 76 0 15 -19 5 -63 -33 -25 -22 -48 -37 -50 -33
-3 5 24 49 60 98 60 83 143 236 143 265 0 7 -7 10 -15 6 -35 -13 -23 31 48
166 41 79 73 148 70 155 -2 6 3 25 11 42 9 16 15 51 15 78 -1 34 8 68 32 118
27 58 33 82 33 141 0 74 -19 124 -49 124 -19 0 -19 21 0 67 12 29 13 38 3 45
-9 5 3 23 44 60 l57 53 -29 17 c-24 14 -30 24 -30 52 0 75 24 181 47 214 l24
32 -37 0 c-30 0 -44 7 -76 40 -39 42 -68 50 -115 35 -21 -7 -23 -4 -23 26 0
19 -7 43 -15 53 -24 32 -18 45 38 72 65 30 131 83 105 84 -27 0 -22 19 8 30
32 13 32 13 36 -5 5 -27 178 112 178 143 0 10 -12 7 -43 -12 -29 -16 -52 -23
-67 -19 -24 6 -60 37 -60 52 0 4 25 26 57 47 31 21 70 49 87 61 17 12 66 36
109 54 70 28 86 41 165 125 105 112 169 216 224 364 22 60 44 107 49 104 5 -3
9 -31 9 -62 0 -168 110 -890 154 -1017 8 -22 22 -67 31 -99 9 -32 23 -68 30
-80 8 -12 27 -53 43 -92 31 -74 136 -237 146 -227 3 4 6 -3 6 -14 0 -12 7 -23
15 -27 8 -3 15 -12 15 -21 0 -8 5 -15 10 -15 6 0 10 -10 10 -23 0 -15 9 -29
25 -37 32 -17 34 -49 3 -44 -17 3 -29 -5 -45 -32 -13 -19 -23 -39 -23 -43 0
-5 -7 -14 -15 -21 -11 -9 -15 -33 -15 -86 0 -81 2 -83 73 -98 20 -5 27 -12 27
-31 0 -14 8 -29 19 -34 15 -9 18 -17 12 -44 -5 -18 -13 -43 -20 -55 -10 -20
-8 -30 13 -69 16 -28 26 -61 26 -87 0 -23 6 -65 13 -93 15 -57 12 -69 -18 -74
-11 -2 -25 -15 -31 -28 -7 -13 -16 -26 -21 -30 -17 -13 -63 -143 -63 -180 0
-9 -6 -28 -14 -43 -13 -25 -22 -81 -32 -203 -2 -27 -7 -59 -12 -70 -19 -43
-44 -122 -55 -169 -12 -58 2 -148 29 -177 24 -27 14 -89 -30 -181 -20 -42 -36
-83 -36 -91 0 -12 -53 -86 -110 -154 -5 -7 -10 -19 -10 -27 0 -21 -32 -86 -42
-86 -4 0 -8 -7 -8 -15 0 -13 292 -15 2565 -15 l2564 0 -6 53 c-3 28 -15 68
-27 87 -44 71 -168 329 -182 381 -9 30 -25 92 -36 137 l-21 84 29 24 c16 13
38 23 49 21 15 -1 21 5 23 23 2 14 13 32 25 41 20 17 20 18 4 59 -12 30 -14
48 -7 61 6 10 12 56 14 103 3 53 10 93 19 106 13 19 13 25 0 51 -8 16 -13 39
-12 51 2 13 -5 36 -15 51 -14 20 -20 50 -21 100 -2 40 -6 89 -10 111 -6 28 -4
40 6 46 11 7 11 13 1 32 -42 77 -57 244 -29 310 11 27 13 46 7 68 -7 24 -6 32
6 37 7 3 14 12 14 20 0 8 15 32 33 54 19 21 42 56 52 76 10 21 22 46 26 55 5
10 9 20 9 22 0 9 -46 -8 -65 -24 -31 -27 -62 -40 -79 -34 -8 3 -41 -12 -75
-35 -91 -62 -151 -91 -187 -91 -19 0 -34 4 -34 9 0 4 27 31 60 60 33 29 60 57
60 62 0 16 -36 10 -54 -10 -19 -21 -318 -172 -386 -195 -49 -17 -56 -15 -45
11 5 10 10 27 12 38 2 11 10 23 18 28 8 4 15 17 15 27 0 11 16 38 36 60 37 41
41 60 7 42 -10 -6 -45 -15 -78 -21 -52 -10 -64 -9 -92 6 -36 19 -41 41 -18 76
7 12 20 56 26 97 12 72 49 150 71 150 6 0 8 13 6 29 -3 22 0 31 14 34 26 7 22
24 -7 31 -32 8 -32 30 0 44 29 13 85 87 85 113 0 9 6 19 13 22 8 3 11 29 10
92 -3 91 11 157 47 233 11 23 20 57 20 77 0 23 9 48 24 68 13 18 27 51 31 74
4 24 11 45 16 49 5 3 9 19 9 36 0 29 7 47 51 146 10 23 19 49 19 57 0 8 12 51
26 97 15 46 27 101 29 122 1 33 9 46 47 80 46 41 78 98 97 171 6 22 17 49 25
60 19 25 22 193 4 241 -10 28 -9 39 7 74 18 39 81 100 104 100 5 0 13 22 17
50 4 27 13 55 20 61 8 6 14 20 14 30 0 31 28 49 76 49 66 0 134 -19 134 -38 0
-16 38 -70 73 -103 38 -35 139 -77 214 -89 40 -7 73 -15 73 -20 0 -4 12 -10
28 -13 15 -3 36 -12 47 -21 16 -12 18 -17 8 -27 -18 -18 -17 -23 13 -58 24
-29 24 -31 6 -31 -11 0 -26 7 -33 16 -13 16 -28 23 -79 39 -23 7 -23 7 -6 -10
9 -10 33 -28 52 -41 100 -69 186 -167 168 -195 -4 -6 -2 -14 3 -18 6 -3 22
-25 37 -49 34 -55 32 -86 -8 -90 -28 -4 -29 -4 -23 -54 4 -27 11 -56 17 -63 7
-9 9 -42 6 -93 -6 -76 -5 -79 19 -92 32 -17 32 -47 -1 -62 -23 -11 -24 -13 -7
-19 10 -4 37 -8 61 -8 23 -1 42 -5 42 -10 0 -6 -29 -29 -65 -52 -36 -23 -65
-43 -65 -45 0 -1 7 -10 16 -19 34 -34 30 -87 -15 -180 l-42 -86 25 -26 c19
-19 24 -31 19 -53 -6 -33 17 -110 56 -187 28 -56 77 -113 156 -178 100 -83
127 -113 123 -137 -2 -18 -11 -24 -38 -28 -42 -6 -119 -41 -120 -54 0 -5 16
-24 35 -42 49 -45 46 -57 -15 -52 -32 2 -50 -1 -50 -8 0 -6 -7 -17 -15 -24
-10 -8 -13 -21 -9 -39 8 -33 161 -184 215 -211 41 -21 45 -30 30 -59 -15 -27
3 -84 49 -161 39 -65 41 -72 28 -93 -23 -35 -48 -116 -41 -135 3 -9 13 -25 21
-34 10 -12 13 -28 9 -48 -8 -40 29 -143 102 -285 31 -60 75 -150 99 -200 23
-49 64 -132 92 -184 28 -52 49 -99 47 -105 -3 -6 -38 24 -79 67 -40 42 -77 77
-81 77 -11 0 1 -65 24 -129 11 -29 17 -62 14 -71 -3 -10 3 -56 14 -102 10 -46
22 -110 26 -142 4 -32 22 -98 40 -145 84 -220 142 -329 213 -403 l36 -38 1398
0 1398 0 0 6390 0 6390 -6385 0 -6385 0 0 -6390z m6510 6026 c364 -54 608
-125 875 -256 265 -129 461 -257 698 -455 245 -204 376 -338 538 -549 91 -118
99 -132 98 -170 -3 -53 20 -96 75 -141 36 -29 54 -57 97 -153 47 -102 53 -124
51 -172 -1 -39 4 -69 19 -102 19 -40 27 -48 65 -58 24 -7 50 -20 58 -29 17
-19 51 -102 76 -186 10 -33 27 -82 38 -110 28 -68 61 -190 68 -251 6 -46 4
-54 -23 -85 -37 -42 -83 -131 -83 -160 0 -22 103 -129 125 -129 30 0 106 -43
135 -76 36 -41 50 -73 50 -113 0 -44 92 -120 250 -206 180 -98 179 -98 207
-200 13 -49 28 -119 34 -155 10 -60 60 -198 82 -227 11 -15 23 -9 38 19 7 13
7 18 1 14 -6 -3 -14 -1 -18 5 -3 6 -1 15 7 19 10 7 10 14 1 34 -9 21 -9 24 3
19 10 -3 15 1 15 12 0 10 8 39 17 65 16 45 19 48 46 43 28 -6 34 -1 99 76 14
17 29 21 72 21 30 0 58 -4 61 -10 3 -5 33 -10 65 -10 49 0 61 -3 70 -20 14
-26 37 -26 45 1 7 20 7 19 30 -5 27 -29 56 -33 79 -11 8 8 19 15 25 15 5 0 10
17 9 38 0 21 8 54 18 73 11 19 21 45 24 58 5 24 50 42 50 21 0 -6 16 -10 36
-10 20 0 50 -6 67 -14 18 -7 44 -18 60 -24 19 -8 27 -19 27 -36 0 -14 8 -30
19 -35 10 -6 21 -23 24 -39 3 -16 24 -49 47 -73 23 -24 50 -64 61 -89 11 -25
28 -54 38 -65 42 -46 80 -149 92 -245 15 -127 -3 -623 -25 -690 -28 -84 -61
-155 -90 -192 -60 -80 -187 -72 -282 17 -20 19 -48 38 -60 41 -13 3 -28 12
-35 20 -6 8 -20 14 -29 14 -10 0 -32 8 -48 17 -24 14 -33 15 -45 5 -13 -11
-12 -18 5 -55 12 -23 23 -44 27 -47 21 -16 89 -111 105 -145 74 -160 120 -400
141 -730 6 -89 -31 -463 -55 -560 -5 -22 -9 -60 -9 -85 l1 -45 13 50 c17 69
56 149 82 169 65 48 227 -1 257 -79 42 -108 47 -271 11 -382 -14 -43 -25 -85
-25 -94 0 -9 -13 -57 -30 -107 -16 -50 -30 -102 -30 -114 0 -27 -44 -167 -65
-208 -8 -16 -15 -38 -15 -48 0 -11 -11 -27 -25 -36 -14 -9 -25 -22 -25 -29 0
-18 -36 -49 -92 -80 -75 -42 -200 -39 -211 3 -5 21 -41 28 -52 11 -3 -6 -19
-16 -35 -25 -27 -13 -30 -13 -30 1 0 16 -36 53 -52 53 -11 0 -10 63 2 94 16
42 -2 29 -55 -41 -56 -73 -179 -200 -246 -255 -126 -102 -338 -190 -514 -214
-119 -16 -135 -17 -155 -4 -14 9 63 93 308 335 39 39 72 77 72 83 0 7 7 20 16
29 42 47 153 232 209 348 71 150 87 191 110 296 21 95 34 119 36 64 l1 -40 15
34 c17 41 38 176 53 351 14 171 16 640 3 664 -10 19 -11 19 -16 0 -3 -10 -9
-36 -13 -56 -7 -42 -24 -51 -24 -14 0 14 -7 32 -16 40 -12 12 -15 36 -14 103
2 154 -14 294 -71 618 -33 187 -43 222 -96 339 -63 141 -94 188 -233 357 -11
13 -40 21 -110 29 -90 11 -109 18 -186 66 -26 16 -24 13 11 -24 l39 -42 -30 0
c-17 0 -50 13 -75 29 -47 29 -131 130 -144 172 -4 13 -15 35 -24 49 -46 67
-84 186 -98 305 -8 66 -14 136 -14 155 1 24 -10 52 -34 90 -19 30 -35 62 -35
72 0 28 -106 138 -135 138 -55 1 -163 59 -149 81 3 5 16 9 29 9 13 0 35 12 49
27 l24 26 -21 29 c-19 25 -27 28 -79 28 -32 0 -75 -7 -95 -15 -19 -8 -43 -15
-52 -15 -9 0 -22 -9 -29 -20 -7 -11 -19 -20 -27 -20 -8 0 -15 -4 -15 -10 0
-16 23 -60 32 -60 4 0 8 -11 8 -23 0 -13 13 -42 29 -64 16 -22 37 -55 46 -74
10 -19 47 -62 83 -97 43 -42 61 -66 54 -71 -9 -5 -5 -21 12 -57 41 -82 61
-136 62 -168 3 -63 23 -212 34 -251 26 -95 76 -208 121 -271 123 -174 140
-205 149 -259 11 -67 44 -176 72 -235 11 -25 29 -63 38 -86 10 -22 25 -48 35
-58 10 -9 15 -19 12 -22 -3 -3 -38 -1 -79 5 -171 25 -308 33 -391 22 -176 -23
-271 -50 -338 -97 -39 -27 -71 -25 -48 2 9 11 7 14 -15 14 -58 0 -124 -58
-171 -150 -39 -77 -48 -74 -40 11 8 86 10 90 107 189 134 139 166 160 237 160
20 0 61 7 90 16 32 9 93 15 154 16 86 0 113 -4 177 -27 41 -15 84 -29 95 -32
11 -3 26 -10 33 -16 7 -5 15 -7 18 -4 10 9 -55 39 -186 83 -73 25 -129 39
-134 34 -5 -5 -16 -5 -26 0 -9 5 -59 13 -111 19 -52 5 -98 11 -104 12 -5 2
-27 0 -48 -4 -30 -7 -43 -4 -65 13 -32 26 -70 21 -139 -16 -51 -27 -60 -26
-44 4 6 12 11 23 11 26 0 21 -66 -16 -141 -79 -20 -16 -49 -40 -65 -52 -22
-17 -25 -24 -16 -35 9 -11 7 -21 -8 -45 -29 -48 -64 -66 -122 -64 -55 2 -88
-5 -88 -19 0 -15 40 -22 56 -9 21 18 42 -4 25 -25 -10 -11 -18 -13 -31 -6 -14
8 -23 2 -44 -28 -30 -44 -33 -62 -10 -62 12 0 15 -6 10 -22 -4 -13 -10 -38
-13 -57 -6 -32 -5 -32 15 -20 30 19 37 6 35 -59 0 -31 -2 -77 -2 -101 -1 -24
-5 -49 -10 -55 -14 -19 -19 -53 -9 -70 7 -13 3 -26 -16 -51 -14 -18 -26 -45
-26 -58 0 -17 -17 -38 -59 -73 -90 -76 -94 -91 -11 -49 76 38 93 33 33 -11
-51 -37 -63 -49 -36 -35 12 6 27 11 34 11 13 0 -5 -13 -153 -115 -56 -38 -127
-95 -158 -125 -30 -31 -84 -80 -120 -110 -36 -30 -68 -58 -71 -63 -3 -4 -35
-38 -70 -75 -108 -111 -95 -111 26 1 32 29 126 89 131 84 3 -3 1 -14 -5 -25
-6 -12 -11 -33 -11 -49 1 -24 2 -26 13 -12 18 23 44 30 51 14 4 -12 -30 -64
-55 -85 -3 -3 -20 -25 -37 -49 -75 -103 -185 -221 -208 -221 -20 0 -12 42 15
80 28 40 33 50 23 50 -5 0 -14 -11 -22 -24 -7 -13 -21 -26 -30 -29 -10 -3 -28
-24 -40 -47 -17 -33 -26 -41 -42 -37 -17 5 -19 2 -15 -19 3 -17 -1 -28 -14
-35 -11 -5 -19 -6 -19 -2 1 15 38 118 63 176 14 31 24 57 22 57 -5 0 -65 -40
-96 -65 -31 -25 -79 -97 -103 -155 -10 -25 -22 -53 -27 -62 -5 -10 -9 -31 -9
-47 0 -17 -5 -33 -11 -37 -6 -3 -9 -15 -6 -25 3 -10 0 -38 -5 -61 -6 -24 -13
-67 -17 -97 l-6 -54 -105 -20 c-58 -11 -131 -21 -162 -22 -31 -2 -61 -6 -66
-9 -6 -3 -18 -3 -27 0 -15 6 -14 8 2 23 36 33 73 51 102 51 16 0 33 5 36 10 9
15 -41 12 -81 -5 -20 -8 -58 -31 -84 -50 -62 -46 -83 -47 -60 -4 10 18 7 19
-43 19 -30 0 -74 7 -97 15 -38 13 -47 13 -87 0 -60 -20 -72 -19 -85 10 -8 18
-17 24 -29 20 -46 -15 -48 89 -4 175 22 42 94 120 189 203 62 56 29 89 -50 51
-34 -16 -36 -16 -60 7 -44 41 -55 79 -39 141 51 204 106 308 227 430 32 32 58
62 59 66 0 4 19 21 42 37 23 17 42 37 42 45 0 8 4 20 8 27 9 14 -10 66 -21 59
-5 -3 -7 -20 -5 -38 3 -31 2 -31 -8 -10 -16 29 -27 28 -39 -3 -8 -22 -13 -24
-29 -15 -11 6 -24 17 -29 25 -11 20 -40 6 -192 -94 -63 -42 -121 -80 -128 -84
-8 -5 -15 0 -22 17 -7 20 -18 26 -57 31 -82 11 -96 20 -89 60 8 40 6 41 -36
19 -31 -16 -45 -11 -48 16 -5 31 1 51 18 68 9 9 37 39 62 66 l45 49 -65 -33
c-36 -17 -79 -46 -97 -62 -29 -28 -33 -29 -53 -15 -29 20 -52 65 -45 88 8 23
84 89 103 89 7 0 12 6 9 13 -6 17 -37 9 -64 -15 -12 -11 -31 -18 -45 -16 -19
2 -23 8 -22 36 1 17 -2 32 -7 32 -5 0 -22 19 -39 42 -17 23 -46 52 -64 65 -19
12 -38 32 -41 43 -5 17 -9 19 -21 9 -12 -9 -19 -8 -37 7 -37 32 -81 61 -105
68 -14 5 -22 15 -22 30 0 13 -7 29 -15 36 -8 7 -19 27 -23 44 -6 23 -15 32
-33 34 -52 6 -69 13 -94 40 -14 15 -25 21 -25 15 0 -6 22 -78 49 -160 62 -186
77 -244 91 -363 6 -52 18 -131 26 -175 7 -44 17 -113 20 -152 8 -84 -1 -103
-50 -103 -46 0 -82 42 -91 105 -4 28 -16 65 -27 82 -10 18 -17 37 -13 43 3 5
-2 23 -11 39 -17 29 -17 30 15 66 38 43 36 56 -8 69 -39 11 -95 61 -86 76 4 7
-3 22 -15 35 -18 19 -21 31 -16 59 6 32 4 36 -14 36 -11 0 -20 6 -20 14 0 7
-9 25 -21 40 -14 18 -19 35 -15 50 4 16 -1 29 -14 41 -11 10 -20 23 -20 28 0
6 -16 41 -35 78 -19 38 -35 76 -35 86 0 10 -9 37 -20 58 -12 22 -19 49 -16 59
3 11 -4 32 -15 47 -10 15 -19 39 -19 54 0 41 -18 67 -41 60 -15 -5 -19 -2 -19
15 0 11 -7 23 -15 26 -8 4 -15 17 -15 30 0 29 -44 52 -65 34 -6 -5 -15 -7 -18
-3 -4 3 -7 0 -7 -7 0 -8 -16 1 -36 21 -36 34 -37 34 -18 4 11 -16 25 -36 32
-45 51 -59 192 -306 192 -337 0 -7 6 -32 14 -55 8 -24 17 -62 21 -85 l7 -43
-36 0 c-25 0 -36 4 -36 15 0 8 6 15 14 15 7 0 19 6 25 13 14 18 -22 53 -64 62
-16 4 -35 14 -42 23 -11 13 -19 13 -71 -7 -105 -38 -128 -30 -181 66 -45 82
-165 280 -210 347 -14 22 -65 89 -113 150 -49 61 -88 117 -88 124 0 7 7 15 15
18 12 5 14 16 9 55 -6 42 -4 49 11 49 45 0 146 -71 287 -203 82 -77 152 -137
154 -134 3 3 -3 14 -13 24 -87 88 -229 273 -216 282 5 3 9 34 9 69 -1 55 2 65
23 81 l24 18 -36 61 c-20 34 -32 64 -27 67 12 7 175 -88 262 -152 112 -83 286
-273 364 -398 36 -57 79 -114 87 -115 13 0 7 21 -14 51 -11 16 -18 36 -15 44
3 8 -3 17 -15 20 -10 4 -19 10 -19 14 0 4 -13 21 -30 37 -16 16 -30 35 -30 42
0 6 -4 12 -10 12 -5 0 -10 9 -10 20 0 11 -7 20 -15 20 -8 0 -15 5 -15 10 0 6
5 10 10 10 16 0 12 43 -7 70 -29 41 -16 107 31 158 l21 24 -48 -5 -48 -4 -17
60 c-12 42 -24 63 -39 70 -22 10 -32 37 -14 37 15 0 30 52 35 122 7 103 26
132 136 206 52 35 122 89 155 121 33 32 67 60 75 63 8 3 12 9 8 13 -4 4 -38
-9 -77 -29 -66 -33 -92 -36 -56 -6 9 7 14 19 11 27 -5 13 67 64 127 91 30 13
28 32 -4 32 -10 0 -19 3 -19 8 0 13 42 46 85 66 61 29 20 30 -54 1 -74 -29
-88 -31 -72 -11 9 11 9 15 -1 20 -10 5 -10 7 0 12 7 3 34 20 60 38 26 18 56
36 67 40 18 7 18 8 3 17 -10 5 -25 5 -40 0 -12 -6 -18 -10 -13 -11 13 -1 -54
-30 -69 -30 -6 0 -3 7 7 14 9 7 17 16 17 19 0 3 -8 7 -17 10 -13 3 -9 6 12 11
60 14 82 39 45 51 -12 4 -17 11 -13 18 4 7 6 22 4 35 -1 12 2 22 8 22 7 0 16
11 23 25 6 13 37 45 69 70 32 25 66 62 76 82 9 20 36 50 60 66 47 34 52 43 26
51 -10 3 -19 17 -19 31 -2 21 4 26 37 35 28 8 39 16 39 29 0 22 -19 31 -66 31
-49 0 -53 22 -12 73 19 23 38 47 42 54 9 16 -19 70 -44 83 -34 18 -201 -15
-295 -59 -11 -5 -37 -15 -57 -21 -21 -6 -38 -16 -38 -21 0 -5 -12 -23 -27 -40
-105 -118 -113 -125 -113 -89 0 11 4 20 10 20 11 0 94 119 88 126 -4 3 -98
-77 -121 -104 -11 -13 -30 -31 -94 -89 -41 -39 -63 -72 -113 -177 -71 -147
-132 -323 -155 -446 -9 -47 -22 -118 -30 -158 -16 -82 -56 -215 -62 -208 -3 2
-32 -36 -66 -86 -69 -102 -115 -144 -217 -200 -151 -82 -294 -124 -446 -130
-53 -2 -68 2 -91 20 -16 13 -39 30 -53 39 -29 18 -96 152 -129 258 -30 95 -41
115 -63 115 -23 0 -34 -26 -19 -44 6 -7 20 -37 30 -67 27 -78 71 -181 87 -204
26 -37 17 -55 -43 -82 -32 -14 -80 -32 -107 -40 -27 -8 -54 -19 -60 -24 -6 -5
-29 -25 -51 -44 -22 -19 -45 -35 -52 -35 -7 0 -15 17 -18 38 -10 66 -27 147
-34 162 -4 8 -5 29 -1 45 5 24 2 34 -17 50 -29 25 -23 50 16 63 16 6 49 26 74
45 26 20 69 48 97 63 27 15 50 33 50 41 0 7 -2 13 -5 13 -5 0 -68 -38 -174
-104 -41 -25 -91 -49 -110 -52 -20 -4 -45 -14 -56 -23 -31 -26 -72 -44 -87
-38 -8 3 -3 9 15 17 15 7 27 19 27 25 0 7 19 20 43 29 72 28 329 294 385 399
30 55 33 68 28 114 -3 28 -15 72 -25 96 -16 38 -26 47 -57 56 -25 7 -43 7 -56
0 -10 -5 -74 -13 -141 -16 -71 -3 -133 -11 -149 -19 -15 -8 -35 -14 -46 -14
-18 0 -64 -42 -76 -70 -3 -8 -4 -4 0 10 3 14 12 52 20 85 7 33 17 103 20 155
8 108 -2 138 -56 184 -37 31 -60 34 -53 7 8 -33 -25 -143 -74 -241 -127 -255
-275 -428 -412 -481 -61 -24 -61 -24 -55 -58 9 -44 -12 -33 -33 18 -33 78 -46
149 -47 251 -1 95 2 110 27 161 46 94 284 340 417 431 58 39 80 48 114 48 55
0 162 36 206 69 64 48 120 81 139 81 16 0 49 28 65 57 10 19 -12 53 -34 53
-11 0 -20 -6 -20 -14 0 -7 -7 -19 -15 -26 -24 -20 -20 55 5 90 19 27 95 61
168 75 36 7 36 7 22 -29 -18 -47 -40 -215 -39 -293 2 -92 16 -57 18 43 1 55
28 161 53 208 25 47 121 106 172 106 27 0 28 -1 21 -37 -10 -53 -51 -153 -74
-177 -10 -12 -38 -58 -61 -104 -23 -45 -55 -96 -71 -113 l-28 -30 54 -30 c48
-27 103 -79 180 -172 l30 -37 85 41 c47 22 99 48 116 57 53 30 275 162 364
217 47 29 132 76 189 105 120 60 162 86 249 153 57 45 152 160 152 185 0 6 21
28 47 49 26 21 55 45 65 53 25 20 23 38 -4 42 -13 2 -24 11 -26 21 -3 16 0 18
28 12 33 -7 33 -7 26 26 -13 68 -12 72 19 82 17 5 32 11 34 13 4 4 -23 32 -67
67 -27 21 -31 27 -16 27 26 0 63 -26 124 -88 29 -29 55 -50 57 -48 8 7 -44 89
-78 124 -17 17 -27 32 -21 32 14 0 98 -69 152 -124 24 -25 48 -46 53 -46 11 0
-1 60 -16 78 -18 23 2 26 84 13 58 -9 85 -9 92 -2 17 17 33 13 65 -14 41 -34
62 -33 62 5 l0 29 53 -31 c42 -25 67 -32 130 -37 43 -4 80 -4 83 -2 2 2 -1 10
-8 18 -17 20 -2 28 24 11 70 -45 232 -79 242 -51 10 25 7 33 -14 33 -24 0 -27
15 -4 24 8 3 32 -5 52 -19 20 -14 39 -25 43 -25 3 0 -8 27 -24 60 -17 33 -27
63 -24 66 3 4 29 -8 57 -25 28 -17 57 -31 66 -31 8 0 29 -7 45 -16 17 -8 54
-17 82 -19 29 -2 107 -8 174 -15 67 -6 155 -10 195 -10 40 1 141 -2 223 -5
136 -6 217 -7 293 -5 103 3 319 -43 402 -85 14 -7 36 -11 50 -8 18 3 32 -3 49
-21 18 -19 35 -26 60 -26 20 0 53 -9 74 -20 32 -17 44 -19 75 -10 47 13 72 13
72 0 0 -5 -8 -10 -17 -10 -30 0 0 -17 52 -29 28 -7 60 -19 73 -27 12 -8 40
-14 63 -12 40 2 59 -10 59 -40 0 -10 10 -12 38 -7 36 6 39 4 55 -30 15 -32 21
-36 49 -33 24 2 39 12 56 38 l24 35 -7 -40 c-16 -85 -7 -91 56 -41 24 20 63
47 87 62 40 24 44 25 61 10 25 -23 42 -20 92 14 24 16 48 30 53 30 5 0 32 18
60 39 80 62 198 114 249 109 l42 -3 -17 35 c-10 19 -18 46 -18 60 0 46 -20 99
-40 105 -20 6 -110 119 -110 137 0 20 -62 132 -83 150 -16 15 -30 17 -64 12
-24 -3 -43 -3 -43 1 0 4 16 25 35 46 39 43 47 89 17 89 -10 0 -23 5 -29 11 -6
6 -33 15 -59 20 -27 5 -60 20 -74 32 -14 13 -38 32 -53 43 -96 65 -148 97
-193 118 -55 25 -126 75 -202 142 -58 50 -133 104 -145 104 -4 0 -20 14 -34
30 -13 17 -29 30 -35 30 -9 0 -66 40 -141 100 -18 15 -66 39 -107 54 -41 16
-82 35 -91 42 -8 8 -28 14 -43 14 -16 0 -42 7 -59 14 -48 22 -185 58 -270 71
-21 3 -35 10 -33 14 5 7 -15 16 -119 50 -91 29 -114 34 -158 32 -26 -1 -62 2
-80 8 -59 17 -112 34 -125 39 -7 2 -10 -1 -7 -11 4 -8 -1 -17 -9 -20 -22 -8
-20 -43 2 -52 16 -6 16 -7 -1 -20 -17 -12 -13 -15 38 -26 31 -7 67 -23 82 -36
18 -17 33 -23 49 -19 17 5 26 1 34 -14 6 -11 20 -20 30 -20 11 0 20 -4 20 -8
0 -5 19 -15 43 -22 23 -8 54 -22 69 -32 14 -10 32 -18 39 -18 16 0 49 -30 49
-45 0 -6 26 -19 58 -29 31 -10 80 -33 109 -52 28 -19 57 -34 64 -34 19 0 79
-50 79 -66 0 -22 42 -75 68 -85 15 -6 22 -17 22 -34 0 -14 4 -25 8 -25 8 0 47
-37 107 -100 29 -30 29 -31 7 -37 -12 -3 -22 -10 -22 -15 0 -5 -7 -16 -15 -24
-8 -9 -15 -24 -15 -35 0 -10 -6 -19 -12 -19 -8 0 -6 -5 4 -10 10 -6 26 -7 40
-2 32 12 98 3 98 -13 0 -33 -13 -45 -50 -45 -21 0 -43 7 -50 15 -8 9 -29 15
-55 15 -35 0 -44 4 -48 21 -5 19 -30 24 -28 6 1 -4 1 -27 1 -52 l0 -45 65 0
65 0 0 -45 c0 -37 3 -45 19 -45 10 0 30 -10 45 -21 15 -12 30 -19 33 -15 4 3
8 42 11 86 3 59 8 80 18 80 10 0 14 -16 14 -58 0 -52 3 -60 25 -72 14 -7 25
-19 25 -27 0 -16 28 -17 66 -3 20 8 31 7 43 -4 9 -7 34 -16 56 -19 22 -3 78
-11 125 -17 65 -9 97 -9 136 1 67 15 86 8 38 -15 -22 -11 -46 -23 -54 -27
-161 -91 -245 -118 -399 -126 -112 -6 -114 -5 -132 18 -18 23 -19 24 -19 3 0
-12 11 -29 25 -38 14 -9 25 -21 25 -27 0 -5 11 -27 25 -47 14 -20 25 -31 25
-24 0 6 5 12 10 12 14 0 12 -22 -5 -43 -13 -18 -15 -16 -35 22 -11 23 -32 51
-45 63 -14 12 -25 28 -25 35 0 7 -4 13 -9 13 -5 0 -18 16 -30 35 -11 19 -28
35 -37 35 -11 0 -15 6 -11 20 3 13 1 19 -7 18 -16 -4 -59 32 -186 155 -56 53
-110 97 -120 97 -25 0 -35 17 -20 35 7 8 10 22 6 31 -8 22 -25 8 -19 -16 7
-28 -9 -25 -40 6 -15 14 -48 40 -74 56 -26 17 -59 41 -72 54 -13 13 -31 24
-40 24 -9 0 -42 16 -74 35 -32 19 -62 35 -68 35 -5 0 -9 4 -9 8 0 4 -24 16
-52 27 -29 10 -64 25 -78 35 -37 24 -137 70 -152 70 -7 0 -34 11 -60 25 -26
14 -55 25 -65 25 -10 0 -31 7 -47 15 -17 9 -50 20 -75 26 -25 5 -68 18 -96 29
-67 25 -211 57 -370 83 -96 16 -173 21 -295 21 -181 0 -180 0 -405 -78 -71
-25 -140 -46 -153 -46 -26 0 -101 -36 -182 -88 -47 -29 -212 -155 -246 -187
-17 -16 -135 -103 -176 -130 -27 -17 -38 -20 -38 -11 0 24 11 46 24 46 11 1
56 34 56 43 0 3 -9 3 -20 0 -11 -3 -20 0 -20 6 0 6 -7 11 -15 11 -9 0 -15 9
-14 23 2 40 14 64 45 90 28 23 34 25 57 14 34 -16 39 -39 15 -77 -10 -18 -17
-34 -15 -37 3 -2 18 17 33 42 16 25 39 59 52 75 28 36 29 85 2 100 -11 6 -20
17 -20 25 0 19 -29 19 -36 1 -3 -8 -11 -13 -18 -10 -12 5 -60 -43 -82 -82 -17
-30 -44 -30 -44 0 0 35 16 73 57 134 60 91 26 80 -87 -28 -36 -34 -84 -75
-107 -91 -23 -16 -47 -37 -52 -47 -7 -10 -11 -12 -11 -4 0 10 -14 11 -59 6
-35 -4 -61 -2 -65 4 -3 5 8 28 24 51 17 22 26 41 21 41 -6 0 -13 -5 -16 -10
-12 -20 -155 -120 -252 -177 -123 -72 -269 -146 -341 -173 -31 -12 -99 -43
-153 -70 -104 -52 -111 -52 -124 3 -15 59 45 157 218 356 202 232 437 412 716
551 195 97 280 131 471 192 115 37 208 76 395 163 85 39 293 123 355 142 168
52 353 94 476 107 77 9 153 18 169 20 62 9 543 -4 635 -18z m5872 -101 c43 -4
81 -2 104 5 32 11 38 10 58 -9 12 -12 27 -21 32 -21 19 0 82 -61 102 -99 38
-73 38 -101 -2 -165 -24 -36 -43 -56 -56 -56 -10 0 -40 -11 -66 -25 -96 -51
-306 -23 -394 52 -60 52 -87 137 -62 191 5 9 15 31 23 47 8 17 25 34 37 40 12
5 22 13 22 17 0 5 8 8 18 8 9 1 28 7 42 15 14 8 36 13 50 10 14 -2 55 -7 92
-10z m241 -703 c14 -15 15 -23 5 -50 -7 -18 -16 -32 -20 -32 -4 0 -8 -6 -8
-13 0 -16 -102 -8 -107 9 -4 13 28 24 70 24 15 0 27 5 27 11 0 6 -12 10 -27 9
-50 -4 -63 0 -63 15 0 9 9 15 25 15 16 0 25 6 25 15 0 22 53 19 73 -3z m-8403
-408 c0 -16 -16 -19 -25 -4 -8 13 4 32 16 25 5 -4 9 -13 9 -21z m-164 -36 c9
-17 47 -64 85 -104 38 -40 69 -82 69 -92 0 -11 -20 -62 -44 -113 -24 -52 -74
-186 -111 -299 -90 -274 -89 -272 -122 -268 -17 2 -32 12 -40 28 -15 31 -35
38 -99 39 -53 1 -104 -17 -274 -97 -101 -47 -201 -82 -235 -82 -14 0 -33 -4
-43 -9 -9 -5 -48 -19 -87 -31 -95 -30 -225 -80 -253 -98 -12 -8 -25 -12 -29
-8 -4 3 18 54 47 114 29 59 69 143 88 187 75 174 133 369 104 351 -7 -4 -12
-14 -12 -23 0 -9 -20 -50 -44 -92 -25 -42 -61 -121 -81 -176 -36 -101 -95
-243 -121 -293 -7 -15 -14 -34 -14 -42 0 -8 -9 -30 -20 -48 -15 -25 -25 -32
-39 -27 -23 7 -61 -41 -61 -76 0 -26 -47 -168 -62 -186 -6 -7 -5 -14 2 -18 12
-7 70 109 70 142 0 12 8 35 18 52 17 30 32 40 32 22 0 -21 -32 -133 -46 -158
-7 -16 -14 -35 -14 -44 0 -35 -38 -54 -108 -52 -50 1 -79 -4 -123 -23 -32 -13
-64 -24 -70 -24 -27 0 30 44 91 72 104 47 109 54 161 242 27 97 115 380 134
429 5 12 2 17 -9 17 -22 0 -21 56 1 129 14 45 30 68 81 118 91 89 178 144 351
218 84 36 179 79 212 95 32 17 63 30 69 30 5 0 -20 -56 -56 -124 -79 -152
-164 -379 -169 -456 -3 -62 -9 -97 -20 -122 -4 -11 -3 -18 3 -18 6 0 16 26 23
58 7 34 31 90 59 137 26 44 69 118 95 165 27 47 66 112 89 145 22 33 49 76 60
95 40 75 75 104 221 188 50 28 119 76 155 106 36 31 66 56 67 56 1 0 10 -14
19 -32z m4369 -448 c-3 -5 3 -10 14 -10 20 0 20 0 -1 -37 -12 -21 -28 -42 -35
-46 -17 -10 -16 -35 1 -67 50 -90 65 -128 59 -148 -4 -18 -8 -20 -19 -11 -9 8
-14 8 -14 1 0 -27 66 -36 125 -16 22 8 48 14 59 14 15 0 16 -3 6 -15 -7 -8
-21 -15 -32 -15 -10 0 -38 -10 -61 -21 -40 -21 -112 -33 -261 -44 -39 -3 -75
-9 -80 -14 -6 -5 -24 -11 -41 -13 -16 -3 -65 -16 -108 -29 l-78 -23 -45 23
c-32 18 -41 27 -32 33 8 6 -2 8 -27 6 -39 -2 -40 -1 -37 26 2 18 -4 35 -15 46
-10 10 -26 26 -35 36 -47 51 -57 57 -73 44 -13 -10 -15 -9 -15 6 0 24 9 36 38
52 75 42 405 138 435 126 9 -3 29 2 46 10 16 9 44 16 61 16 16 0 30 3 30 8 0
4 13 13 29 20 21 9 28 18 24 29 -5 14 -1 15 28 10 24 -5 30 -4 19 3 -12 8 -9
10 13 10 16 0 26 -4 22 -10z m280 -290 c-3 -5 -15 -10 -26 -10 -11 0 -17 5
-14 10 3 6 15 10 26 10 11 0 17 -4 14 -10z m-935 -50 c0 -5 -4 -10 -10 -10 -5
0 -10 5 -10 10 0 6 5 10 10 10 6 0 10 -4 10 -10z m-3890 -110 c0 -38 -332
-151 -439 -149 l-46 1 32 14 c17 7 34 18 38 24 3 5 11 10 16 10 6 0 7 -4 4
-10 -14 -23 12 -8 53 31 47 44 109 69 173 70 35 0 72 4 83 8 22 9 86 9 86 1z
m3984 -32 c5 -21 3 -28 -8 -28 -22 0 -28 17 -14 39 14 23 13 24 22 -11z
m-7636 -952 c4 -32 -19 -88 -33 -82 -5 3 -27 10 -48 17 -44 14 -43 30 1 43 18
5 32 14 32 20 0 16 22 37 35 33 5 -2 11 -16 13 -31z m10062 -77 c0 -5 -4 -9
-10 -9 -5 0 -10 7 -10 16 0 8 5 12 10 9 6 -3 10 -10 10 -16z m1690 -189 c19
-16 43 -29 52 -30 10 0 22 -9 28 -20 6 -11 17 -20 24 -20 19 0 40 -27 80 -104
37 -74 43 -95 76 -271 25 -136 39 -526 21 -591 -13 -48 -58 -96 -70 -76 -4 8
-20 19 -34 27 -93 48 -157 103 -202 174 -14 23 -34 80 -45 128 -11 49 -29 111
-40 138 -33 86 -42 158 -36 293 5 128 23 208 52 233 8 6 14 23 14 38 0 26 31
111 40 111 3 0 21 -13 40 -30z m-1695 -210 c3 -5 1 -10 -4 -10 -6 0 -11 5 -11
10 0 6 2 10 4 10 3 0 8 -4 11 -10z m188 -57 c-13 -2 -35 -2 -50 0 -16 2 -5 4
22 4 28 0 40 -2 28 -4z m-8232 -125 c17 -24 18 -29 6 -19 -18 14 -42 51 -33
51 3 0 15 -15 27 -32z m2144 -62 c-46 -105 -135 -217 -215 -270 -25 -16 -80
-22 -80 -8 0 9 -48 8 -77 -2 -13 -4 -23 -11 -23 -17 0 -14 -67 -38 -90 -32
-12 3 -25 0 -29 -6 -4 -7 -54 -23 -109 -38 -96 -23 -141 -25 -128 -4 3 5 -1
12 -9 15 -9 3 -18 -1 -22 -10 -5 -15 -7 -14 -16 1 -15 28 4 36 114 45 164 15
262 35 297 63 8 6 43 11 78 11 46 0 63 3 60 12 -6 15 13 34 34 34 15 0 130
108 130 123 0 14 104 159 107 150 2 -5 -8 -35 -22 -67z m5663 -54 c6 -18 -15
-14 -22 4 -4 10 -1 14 6 12 6 -2 14 -10 16 -16z m-7689 -102 c12 -8 62 -122
56 -128 -3 -3 -12 3 -20 14 -15 19 -15 19 -8 -1 4 -11 17 -34 28 -52 36 -51
49 -139 41 -265 -7 -111 -8 -114 -66 -233 -32 -66 -69 -144 -82 -172 -12 -29
-28 -53 -35 -53 -16 0 -16 6 -3 29 6 13 5 31 -4 57 -36 100 -53 465 -29 589 7
33 19 101 28 150 9 50 20 94 26 100 5 5 9 20 9 35 0 22 3 19 26 -20 14 -25 29
-47 33 -50z m664 -82 c67 -168 75 -199 54 -216 -20 -17 -40 11 -103 142 -27
54 -53 100 -60 103 -23 9 -184 -89 -184 -112 0 -7 11 -32 23 -56 13 -24 26
-55 30 -69 3 -14 20 -44 37 -66 l30 -42 88 19 c48 10 104 26 126 34 21 9 40
14 43 12 2 -3 -15 -21 -38 -41 -43 -37 -47 -58 -6 -38 12 6 29 12 37 14 61 9
338 -63 433 -113 70 -37 84 -33 25 7 -39 26 -41 29 -20 32 19 3 21 6 11 18
-15 18 -2 18 52 -1 119 -42 197 -105 302 -245 23 -30 55 -71 72 -91 30 -35 82
-119 81 -129 -1 -3 9 -18 21 -34 13 -16 20 -33 17 -38 -3 -5 6 -21 20 -35 14
-14 26 -32 26 -40 0 -8 6 -27 14 -41 57 -110 113 -249 103 -258 -6 -6 -57 87
-83 151 -11 25 -22 45 -26 45 -10 0 -10 -7 1 -28 87 -163 258 -704 326 -1032
26 -125 41 -368 26 -434 -7 -31 -16 -56 -20 -56 -5 0 -11 -13 -14 -30 -4 -20
-13 -30 -24 -30 -10 0 -23 -12 -30 -27 -6 -16 -20 -46 -29 -68 -10 -22 -35
-55 -55 -73 l-38 -34 -17 39 c-14 32 -17 79 -20 293 -3 251 -4 276 -25 415
-19 122 -102 469 -116 483 -7 7 -13 20 -13 29 0 31 -23 94 -30 82 -4 -6 -13
12 -20 39 -6 28 -20 61 -31 73 -10 12 -19 30 -19 40 0 22 -21 69 -31 69 -4 0
-10 11 -13 24 -3 13 -22 47 -41 76 -19 29 -35 56 -35 61 0 9 -79 127 -91 134
-4 3 -9 -5 -12 -16 -4 -14 2 -28 18 -43 13 -12 35 -48 50 -81 15 -33 47 -103
71 -155 24 -52 44 -99 44 -105 0 -5 7 -22 15 -38 25 -49 103 -300 119 -386 16
-83 21 -255 10 -299 -6 -22 -7 -22 -26 9 l-19 31 -23 -21 c-13 -12 -39 -30
-57 -41 -26 -14 -34 -24 -32 -44 1 -19 -3 -26 -16 -26 -14 0 -22 18 -39 85
-12 47 -22 94 -22 104 0 59 -116 393 -182 526 -82 165 -98 188 -98 147 0 -28
-38 -17 -52 14 -6 13 -17 24 -24 24 -6 0 -26 14 -44 30 -18 17 -40 30 -50 30
-10 0 -29 13 -43 30 -34 40 -95 80 -112 74 -10 -4 -12 0 -8 15 4 17 1 21 -20
21 -14 0 -27 6 -30 14 -3 7 -22 17 -42 20 -25 5 -39 15 -47 32 -6 13 -15 24
-19 24 -4 0 -24 16 -45 35 -25 24 -41 32 -47 26 -7 -7 -3 -17 11 -29 12 -11
22 -23 22 -27 0 -11 89 -95 98 -92 4 1 12 -12 17 -28 6 -17 28 -48 50 -70 50
-50 156 -218 217 -345 59 -122 171 -454 145 -430 -3 3 -24 55 -46 115 -51 135
-113 277 -118 271 -3 -2 22 -80 55 -173 33 -92 74 -231 92 -308 17 -77 38
-162 45 -190 7 -27 18 -84 24 -125 6 -41 18 -105 27 -141 24 -92 17 -109 -64
-158 -77 -46 -82 -48 -82 -23 0 9 -7 25 -15 36 -8 10 -17 39 -20 65 -11 82
-113 432 -170 586 -60 162 -215 482 -246 511 -10 9 -19 23 -19 30 0 7 -11 25
-24 41 -12 15 -30 41 -38 57 l-15 28 -1 -38 c-1 -20 -6 -42 -11 -47 -15 -15
-26 22 -14 42 8 13 7 22 -4 36 -14 20 -15 20 -12 0 5 -27 -8 -45 -26 -38 -9 3
-15 19 -15 42 0 20 -9 51 -21 70 -26 42 -20 49 14 15 22 -21 27 -23 27 -10 0
17 -57 76 -73 76 -4 0 -7 6 -5 13 4 18 -58 91 -71 83 -6 -4 -20 -2 -31 4 -17
9 -19 14 -10 25 9 11 2 22 -31 54 -23 23 -49 41 -59 41 -33 0 -92 31 -97 51
-3 11 -21 26 -40 34 -44 19 -47 19 -39 0 4 -13 2 -13 -14 -5 -10 5 -37 10 -60
10 -23 0 -50 5 -60 10 -27 14 -83 -17 -147 -82 -46 -47 -54 -61 -68 -125 -9
-40 -21 -75 -25 -78 -22 -13 -60 -168 -61 -243 0 -50 -7 -94 -20 -127 -13 -34
-17 -40 -14 -20 2 17 7 77 10 135 7 102 28 210 60 300 9 25 18 60 21 79 5 40
68 117 174 215 122 111 340 340 340 356 0 8 7 35 16 59 18 53 13 94 -23 203
-14 42 -23 82 -21 89 2 6 44 -29 93 -80 76 -78 93 -91 121 -91 41 0 53 18 27
39 -40 32 -118 250 -107 298 10 43 20 50 80 58 68 8 118 28 163 66 20 16 38
29 41 29 4 0 32 -64 63 -142z m466 -57 c9 -6 11 -18 7 -34 -5 -20 -12 -25 -30
-24 -37 3 -32 -17 5 -23 18 -3 34 -10 36 -16 4 -12 -96 -68 -139 -78 -24 -5
-158 18 -181 31 -16 10 36 52 92 74 31 13 83 35 116 51 65 30 73 32 94 19z
m5857 -106 c31 -55 64 -112 73 -127 34 -59 -25 -43 -69 18 -38 54 -80 157 -80
198 0 39 6 32 76 -89z m619 -195 c19 -19 35 -38 35 -43 0 -4 13 -27 29 -50 47
-70 69 -119 104 -243 57 -198 88 -397 88 -569 1 -209 -7 -360 -19 -380 -11
-20 -11 -19 -12 3 0 20 -5 22 -59 22 -71 0 -87 12 -97 75 -7 51 0 87 21 109
21 20 19 28 -15 71 -16 21 -30 47 -30 58 0 11 -7 43 -15 71 -14 51 -45 194
-84 396 -11 58 -30 134 -41 170 -12 36 -24 101 -27 145 -3 44 -14 102 -25 129
-25 65 -14 80 59 74 44 -4 60 -11 88 -38z m-6110 0 c158 -48 303 -190 531
-517 37 -54 124 -222 124 -241 0 -5 15 -55 34 -113 18 -57 36 -124 40 -149 l7
-45 -25 36 c-13 20 -33 51 -44 70 -49 87 -58 99 -65 99 -4 0 -5 -15 -2 -34 7
-34 -2 -50 -22 -38 -6 4 -31 45 -56 92 -99 187 -155 283 -184 320 -13 15 -23
32 -23 37 0 6 -12 15 -26 22 -16 7 -24 17 -20 26 3 8 -1 18 -7 22 -7 5 -23 24
-34 43 -12 19 -38 51 -58 70 -20 19 -43 48 -51 63 -8 15 -22 36 -30 45 -41 47
-114 149 -114 160 0 8 -10 23 -22 34 -13 11 -16 18 -8 15 8 -2 33 -10 55 -17z
m-361 1 c11 -4 15 -10 10 -13 -5 -4 -18 0 -29 8 -20 15 -12 17 19 5z m6157
-22 c38 -27 70 -82 128 -225 65 -162 86 -248 111 -459 12 -99 33 -223 47 -275
22 -82 24 -108 19 -190 -4 -71 -10 -98 -22 -107 -15 -11 -14 -16 10 -55 44
-74 71 -98 109 -98 20 0 41 7 51 19 9 10 35 26 57 36 51 23 59 14 59 -71 0
-89 -10 -99 -96 -88 -90 11 -89 11 -90 -1 0 -5 -6 -23 -12 -38 -7 -16 -12 -36
-12 -45 1 -21 29 -57 53 -65 10 -4 16 -11 12 -16 -3 -5 -1 -12 5 -16 5 -3 10
-2 10 4 0 6 15 14 33 19 17 6 40 13 50 17 12 5 17 2 17 -9 0 -9 -6 -16 -14
-16 -24 0 -31 -22 -12 -36 14 -10 17 -29 17 -103 0 -112 -5 -131 -36 -131 -13
0 -27 5 -30 10 -3 6 -12 10 -18 10 -7 0 -4 -7 6 -14 9 -7 17 -18 17 -24 0 -6
6 -15 13 -19 23 -14 28 -44 12 -70 -15 -23 -14 -26 14 -62 37 -47 39 -60 7
-54 -29 6 -42 -12 -25 -33 8 -10 9 -18 2 -25 -7 -7 -19 -3 -36 15 -16 16 -37
26 -54 26 -24 -1 -26 -2 -10 -11 14 -8 17 -18 12 -40 -4 -16 -2 -29 3 -29 7 0
37 -57 60 -115 2 -5 -30 25 -72 68 -41 43 -76 88 -78 100 -2 12 -11 23 -22 25
-11 3 -16 0 -12 -7 11 -17 -5 -13 -43 10 l-33 20 20 -26 c12 -15 39 -39 60
-55 22 -16 53 -46 68 -67 16 -21 34 -42 40 -48 6 -5 30 -36 54 -68 83 -116 9
-66 -95 63 -28 36 -65 72 -81 80 -16 8 -40 22 -53 32 -38 28 -48 21 -16 -12
l29 -30 -46 6 c-37 5 -46 3 -52 -11 -7 -20 12 -79 56 -174 37 -77 58 -152 58
-206 -1 -53 -12 -33 -52 88 -39 121 -78 207 -94 207 -36 0 -22 -128 25 -225
67 -136 85 -195 61 -195 -19 0 -70 91 -84 151 -8 34 -22 69 -29 77 -13 12 -16
10 -22 -16 -3 -17 -13 -36 -21 -43 -8 -6 -14 -17 -14 -23 0 -15 -47 -106 -65
-127 -9 -9 -24 -32 -34 -50 -10 -19 -32 -59 -49 -89 -18 -30 -32 -63 -32 -72
0 -22 -12 -23 -50 -3 -24 12 -30 13 -30 2 0 -18 -27 -53 -35 -45 -4 3 2 21 11
40 10 18 19 42 20 53 1 11 14 67 29 125 39 157 43 189 35 260 l-8 65 1 -70 c1
-80 -10 -155 -24 -155 -5 0 -9 52 -9 115 0 96 3 115 15 115 8 0 15 2 15 5 0 3
-7 22 -15 42 -8 19 -15 52 -15 73 0 21 -6 43 -13 49 -8 6 -22 37 -31 68 -10
32 -27 81 -37 108 -10 28 -19 61 -19 74 0 23 1 23 19 7 10 -9 29 -38 42 -64
12 -26 28 -59 36 -74 7 -14 13 -35 13 -45 0 -11 9 -29 20 -41 15 -15 23 -42
27 -87 3 -36 10 -65 14 -65 17 0 20 51 6 92 -15 41 -32 116 -21 90 14 -30 19
4 18 105 -2 85 -9 138 -34 236 -36 145 -36 187 0 115 23 -46 40 -61 40 -35 0
6 -7 53 -15 102 -17 105 -19 171 -5 180 6 3 10 37 10 75 0 81 20 185 51 261
77 192 113 388 90 496 -7 33 -27 87 -43 119 -17 33 -41 80 -54 105 -22 43 -42
123 -65 254 -13 70 -6 209 12 248 11 25 17 27 72 27 44 0 66 -5 88 -21z
m-5591 -393 c-1 -20 -2 -20 -15 4 -19 33 -19 46 0 30 8 -7 15 -22 15 -34z
m673 -471 c4 -9 -4 -23 -23 -37 -17 -12 -30 -30 -30 -39 0 -26 -11 -49 -22
-49 -7 0 -8 19 -4 53 4 28 7 63 6 76 0 12 3 27 6 32 7 12 60 -16 67 -36z
m-2290 -5 c42 -13 97 -57 169 -136 129 -140 211 -273 223 -359 4 -27 13 -65
21 -84 8 -18 14 -45 14 -58 0 -21 -3 -23 -14 -14 -12 10 -15 7 -18 -16 -3 -25
-7 -21 -47 46 -47 80 -177 256 -248 335 -25 28 -51 62 -58 77 -8 15 -26 29
-42 32 -26 6 -103 69 -103 85 0 4 6 19 14 33 7 14 16 38 20 53 5 21 11 26 24
21 9 -4 30 -11 45 -15z m2496 -31 c6 -18 11 -51 11 -74 0 -36 -4 -44 -22 -49
-100 -26 -212 48 -180 119 12 26 30 32 119 34 60 1 61 0 72 -30z m6261 -108
c0 -66 -34 -64 -42 2 -4 33 -2 37 19 37 20 0 23 -5 23 -39z m-8400 -74 c0 -7
13 -29 30 -49 30 -36 54 -87 46 -95 -2 -3 -13 8 -23 24 -10 15 -39 57 -65 92
-55 74 -60 91 -18 61 17 -12 30 -27 30 -33z m65 7 c16 -16 24 -32 20 -42 -3
-8 -1 -19 6 -22 7 -5 8 -10 1 -14 -6 -3 -16 7 -24 24 -7 16 -16 30 -19 30 -4
0 -9 11 -11 25 -6 31 -5 31 27 -1z m-705 -10 c0 -8 -5 -12 -10 -9 -6 4 -8 11
-5 16 9 14 15 11 15 -7z m-35 -61 c-3 -15 -14 -38 -24 -52 -33 -48 -90 -264
-91 -343 0 -47 -16 -50 -23 -4 -13 81 53 311 115 399 24 34 32 34 23 0z m2603
-21 c3 -9 -2 -13 -14 -10 -9 1 -19 9 -22 16 -3 9 2 13 14 10 9 -1 19 -9 22
-16z m192 -52 c0 -5 -2 -10 -4 -10 -3 0 -8 5 -11 10 -3 6 -1 10 4 10 6 0 11
-4 11 -10z m128 -177 c2 -15 -4 -23 -18 -28 -29 -9 -33 -3 -19 29 14 30 33 29
37 -1z m1432 -73 c0 -5 -9 -10 -21 -10 -11 0 -17 5 -14 10 3 6 13 10 21 10 8
0 14 -4 14 -10z m-4926 -241 c29 -23 32 -42 13 -79 -10 -19 -23 -26 -55 -31
-40 -5 -44 -3 -58 24 -9 16 -13 35 -10 42 3 8 0 16 -7 18 -8 3 -6 11 7 26 25
27 75 28 110 0z m7600 -179 c7 -35 7 -35 -8 -10 -9 14 -15 36 -15 50 0 33 14
8 23 -40z m-1484 -8 c0 -4 -19 -22 -43 -41 -23 -19 -57 -54 -76 -79 -18 -24
-35 -41 -38 -38 -9 9 26 56 83 113 50 49 74 64 74 45z m-4023 -44 c-3 -8 -6
-5 -6 6 -1 11 2 17 5 13 3 -3 4 -12 1 -19z m4123 15 c0 -13 -104 -103 -150
-130 -25 -14 -55 -35 -67 -46 -18 -16 -23 -17 -23 -6 0 9 8 24 19 35 10 11 24
30 30 43 8 14 18 20 30 16 11 -3 25 3 37 16 19 22 19 22 -6 14 -22 -7 -24 -6
-11 9 8 9 21 14 29 11 7 -3 27 6 44 20 27 23 68 34 68 18z m1690 -113 c21 -56
27 -150 11 -150 -11 0 -17 18 -26 75 -4 22 -10 54 -15 70 -4 17 -11 44 -15 60
-6 27 -5 29 9 15 9 -9 25 -40 36 -70z m-145 -155 c33 -78 43 -121 26 -111 -4
3 -16 27 -25 53 -10 26 -26 67 -37 90 -22 49 -23 56 -8 51 6 -2 26 -39 44 -83z
m-2224 -296 c-6 -28 -11 -64 -11 -82 0 -42 -38 -143 -41 -107 -6 99 4 178 29
235 24 54 27 57 30 32 2 -15 -1 -51 -7 -78z m1944 27 c13 -13 30 -46 39 -74
21 -72 2 -144 -51 -191 -21 -18 -66 -58 -101 -90 -61 -55 -92 -73 -92 -52 0 5
12 18 28 29 17 12 32 37 41 66 7 26 21 52 31 59 26 18 50 110 50 192 0 93 11
105 55 61z m-4775 -10 c0 -8 -4 -18 -10 -21 -5 -3 -10 3 -10 14 0 12 5 21 10
21 6 0 10 -6 10 -14z m-387 -48 c34 63 48 33 23 -48 -11 -34 -16 -41 -21 -27
-4 9 -13 17 -20 17 -17 0 -25 24 -24 73 l1 42 12 -45 12 -45 17 33z m3052 -98
c7 -11 -35 -30 -66 -30 -28 0 -19 23 12 31 36 10 47 10 54 -1z m-3037 -69 c-3
-31 -2 -65 3 -76 4 -11 8 -15 8 -8 1 8 15 12 36 11 33 -1 35 -3 35 -36 0 -45
-29 -109 -42 -90 -6 8 -7 4 -3 -12 9 -40 -98 -231 -190 -337 -73 -86 -226
-168 -365 -197 -58 -12 -120 -12 -120 1 0 2 17 21 38 42 32 33 84 91 149 167
10 11 32 23 48 27 17 3 38 9 47 12 12 5 17 0 20 -17 4 -22 5 -22 38 13 67 68
198 368 234 531 5 22 11 27 37 26 l31 -1 -4 -56z m5223 -74 c-11 -18 -29 -42
-41 -52 -20 -18 -20 -18 -20 9 0 15 7 29 15 32 8 4 25 27 37 53 21 44 22 45
26 18 2 -16 -5 -41 -17 -60z m-1240 -73 c10 -4 14 -14 11 -29 -5 -31 28 -42
61 -20 17 11 31 13 48 7 13 -5 39 -7 58 -4 23 3 38 0 45 -10 10 -14 79 -30
136 -32 14 0 27 -4 30 -8 3 -4 41 -4 85 1 52 6 84 6 95 -1 12 -8 31 -6 71 7
46 16 135 22 146 11 3 -2 -12 -16 -31 -31 -44 -33 -133 -52 -301 -65 -141 -10
-264 -34 -316 -61 -21 -10 -45 -19 -52 -19 -14 0 -123 -46 -182 -77 -113 -59
-181 -96 -189 -104 -6 -5 -20 -9 -33 -9 -21 0 -23 3 -16 28 4 15 7 36 6 47 0
13 18 33 53 58 40 28 54 44 54 62 0 15 -6 25 -15 25 -8 0 -22 11 -31 25 -11
17 -25 25 -45 25 -22 0 -29 5 -29 20 0 13 5 18 15 14 16 -7 45 12 45 28 0 6
-11 7 -26 4 -19 -5 -25 -3 -21 6 2 7 12 12 22 11 10 -1 26 8 34 19 11 13 33
22 66 25 28 3 59 12 70 19 11 8 29 14 40 14 11 0 29 7 40 15 10 9 24 13 30 10
5 -3 17 -8 26 -11z m1035 -122 c-4 -54 -44 -85 -116 -90 -33 -2 -60 -2 -60 2
0 11 40 46 53 46 15 1 52 28 52 39 0 4 11 21 25 38 22 29 25 30 36 14 7 -9 11
-32 10 -49z m-5627 -29 c-35 -92 -93 -194 -128 -226 -47 -42 -136 -72 -184
-63 -18 4 -43 8 -57 10 -14 2 -28 4 -32 5 -16 2 -7 21 10 21 9 0 26 11 37 25
24 30 136 141 185 184 19 16 55 38 80 47 25 9 54 23 65 30 24 17 37 0 24 -33z
m308 31 c3 -8 1 -20 -6 -27 -6 -6 -11 -21 -11 -33 0 -13 -4 -26 -10 -29 -6 -4
-7 1 -3 12 6 16 5 16 -10 4 -15 -12 -17 -11 -17 3 0 26 20 57 32 50 6 -4 8 1
3 15 -7 24 12 30 22 5z m5223 -8 c0 -16 -37 -29 -45 -16 -3 5 3 13 12 19 25
14 33 13 33 -3z m-1320 -35 c0 -9 -61 -41 -77 -41 -4 0 7 14 26 30 31 27 51
31 51 11z m-152 -43 c-3 -7 -18 -14 -34 -16 -28 -2 -28 -2 -10 13 24 18 49 20
44 3z m2022 -28 c0 -5 -7 -10 -16 -10 -8 0 -12 5 -9 10 3 6 10 10 16 10 5 0 9
-4 9 -10z m-5820 -20 c0 -5 -5 -10 -11 -10 -5 0 -7 5 -4 10 3 6 8 10 11 10 2
0 4 -4 4 -10z m3670 6 c0 -3 -26 -12 -57 -21 -62 -18 -259 -23 -275 -7 -5 5
20 8 54 7 35 -1 68 1 73 6 14 10 205 24 205 15z m-4464 -136 c5 0 27 -21 49
-47 43 -52 39 -50 -55 18 -36 26 -86 71 -110 101 l-45 53 76 -62 c42 -35 80
-63 85 -63z m1339 90 c3 -5 1 -10 -4 -10 -6 0 -11 5 -11 10 0 6 2 10 4 10 3 0
8 -4 11 -10z m-117 -73 c-5 -9 -20 -24 -33 -33 -14 -9 -25 -23 -25 -30 0 -8
-5 -23 -12 -34 -7 -10 -9 -22 -5 -26 10 -11 90 16 103 34 10 14 14 14 28 3 13
-11 19 -11 33 0 10 8 24 19 31 24 7 6 23 20 34 33 12 12 29 22 38 22 9 0 21 5
28 12 9 9 12 9 12 0 0 -7 5 -12 11 -12 7 0 9 10 5 25 -4 14 -2 25 4 25 5 0 10
-5 10 -11 0 -6 9 -9 20 -6 13 3 20 0 20 -9 0 -8 -4 -14 -10 -14 -5 0 -10 -10
-10 -23 0 -12 -9 -28 -21 -35 -14 -9 -18 -19 -14 -33 5 -15 -8 -38 -50 -89
-45 -55 -71 -76 -128 -105 -83 -43 -160 -59 -228 -50 -55 8 -56 15 -2 41 35
17 36 19 14 22 -14 2 -54 -3 -90 -12 -36 -8 -83 -18 -103 -22 -21 -3 -38 -10
-38 -14 0 -10 37 -20 75 -20 66 -1 68 -31 5 -71 -40 -25 -59 -71 -39 -95 7 -9
3 -28 -17 -70 -23 -49 -25 -59 -12 -68 27 -20 38 -52 29 -82 -8 -27 -71 -161
-99 -209 -55 -96 -83 -271 -53 -331 25 -49 83 -105 103 -98 21 6 23 -9 7 -54
-6 -17 -17 -33 -26 -36 -13 -5 -14 -22 -8 -115 6 -96 5 -113 -11 -140 -15 -26
-16 -35 -6 -51 10 -16 8 -21 -8 -33 -16 -11 -20 -28 -22 -107 -2 -51 -7 -95
-13 -97 -10 -3 -85 105 -85 122 0 4 -17 51 -39 104 -57 143 -120 422 -150 669
-18 141 -25 538 -12 617 38 224 34 210 66 206 17 -1 77 -4 135 -4 119 -2 113
-4 286 107 117 76 237 172 255 204 12 22 14 22 20 5 3 -10 2 -26 -3 -36z
m4657 -29 c15 -29 48 -77 72 -105 50 -59 45 -67 -13 -25 -42 31 -130 174 -119
192 10 16 28 -2 60 -62z m-5723 -97 c101 -45 145 -61 183 -67 22 -4 47 -10 55
-15 30 -17 -34 -10 -105 12 -119 36 -154 50 -177 69 -30 25 -10 25 44 1z
m4634 -28 c-10 -10 -19 5 -10 18 6 11 8 11 12 0 2 -7 1 -15 -2 -18z m4084
-435 c10 12 23 22 29 22 14 0 15 -37 1 -45 -5 -3 -10 -15 -10 -27 0 -11 -12
-40 -27 -64 -26 -40 -31 -43 -72 -44 -40 0 -43 -1 -26 -14 18 -13 18 -14 -3
-25 -19 -10 -22 -9 -22 9 0 11 -5 20 -11 20 -6 0 -9 19 -7 47 2 39 7 49 23 51
23 4 85 65 86 85 0 6 5 1 10 -13 l10 -25 19 23z m-2257 -110 c-16 -31 -18 -32
-21 -10 -2 13 4 33 14 44 25 27 29 7 7 -34z m-79 -650 c4 -17 2 -28 -4 -28 -5
0 -10 14 -10 32 0 36 4 35 14 -4z m-6764 -33 c0 -5 -55 -35 -65 -35 -14 0 -3
18 18 28 24 11 47 15 47 7z m6808 -155 c0 -9 -3 -7 -8 5 -5 11 -8 29 -8 40 0
16 2 15 8 -5 4 -14 8 -32 8 -40z m-8705 -54 c66 -58 73 -83 48 -166 -20 -63
-44 -90 -100 -115 -32 -14 -40 -14 -88 1 -58 18 -125 70 -148 115 -24 46 -24
132 0 159 45 50 75 62 156 57 75 -3 78 -5 132 -51z m11027 -154 c0 -17 -6 -35
-13 -39 -7 -4 -18 -20 -24 -34 -21 -49 -108 -45 -131 6 -6 12 -8 42 -5 66 6
49 42 88 81 89 12 0 22 5 22 10 0 6 16 -7 35 -29 24 -26 35 -48 35 -69z m627
-135 c72 -90 76 -98 58 -141 -17 -40 -102 -164 -144 -210 -33 -36 -130 -108
-139 -104 -59 28 -80 52 -111 126 -37 90 -36 99 28 179 48 61 183 180 226 199
17 7 30 13 31 14 0 0 23 -28 51 -63z m-10067 -102 c0 -17 -39 -60 -47 -52 -9
10 28 66 45 67 1 0 2 -7 2 -15z m1565 -649 c16 -25 28 -146 14 -146 -13 0 -22
20 -35 77 -10 46 -10 93 2 93 2 0 11 -11 19 -24z m-1838 -90 l31 -48 -16 -44
c-11 -29 -22 -44 -34 -44 -9 0 -19 -4 -22 -9 -13 -20 -67 -5 -91 25 -44 55
-38 106 16 138 16 9 29 22 29 27 0 6 12 9 27 7 21 -2 36 -16 60 -52z m1959
-74 c-12 -12 -18 8 -10 35 l8 28 4 -28 c2 -16 1 -31 -2 -35z m4064 -1428 c0
-29 3 -35 16 -30 13 5 15 2 11 -13 -3 -12 4 -28 19 -42 13 -12 24 -29 24 -36
0 -20 40 -103 67 -139 13 -17 23 -45 23 -62 0 -17 5 -34 11 -38 6 -4 9 -20 6
-39 -3 -18 -1 -37 5 -43 6 -6 6 -12 -1 -16 -6 -4 -22 13 -37 36 -14 24 -37 59
-49 78 -26 39 -74 155 -99 239 -18 60 -21 141 -6 141 6 0 10 -16 10 -36z
m-1235 -142 c-3 -8 3 -10 19 -6 16 4 25 0 30 -11 5 -13 2 -16 -10 -11 -8 3
-22 6 -29 6 -7 0 -20 13 -28 29 -14 29 -14 29 4 18 11 -7 17 -18 14 -25z"/>
<path d="M5832 12010 c-19 -4 -39 -13 -45 -20 -10 -10 0 -11 45 -7 66 6 87 15
67 28 -16 10 -22 10 -67 -1z"/>
<path d="M5715 11983 c-4 -13 -15 -23 -25 -23 -22 0 -43 -24 -38 -44 2 -12 12
-8 42 17 27 23 37 38 33 52 -5 19 -5 19 -12 -2z"/>
<path d="M6456 11901 c-10 -16 6 -71 20 -71 8 0 14 3 15 8 0 4 2 16 4 27 6 31
-25 59 -39 36z"/>
<path d="M4635 11794 c-49 -49 -40 -51 15 -3 25 21 40 39 33 39 -7 0 -29 -16
-48 -36z"/>
<path d="M4926 11739 c-3 -17 -6 -51 -6 -76 0 -24 -6 -59 -14 -78 -8 -18 -12
-36 -9 -39 3 -3 1 -19 -5 -35 -6 -18 -7 -33 -2 -36 5 -3 12 7 16 22 3 15 15
47 26 71 11 23 22 61 25 85 4 23 9 44 13 47 4 3 11 21 15 40 7 30 6 33 -8 22
-10 -9 -17 -10 -22 -2 -11 18 -22 11 -29 -21z"/>
<path d="M7176 10943 c-11 -11 -6 -23 9 -23 8 0 15 4 15 9 0 13 -16 22 -24 14z"/>
<path d="M7207 10923 c-14 -14 -6 -23 34 -33 51 -14 59 -11 48 18 -6 17 -16
22 -42 22 -19 0 -37 -3 -40 -7z"/>
<path d="M7455 10690 c-3 -5 -1 -10 4 -10 6 0 11 5 11 10 0 6 -2 10 -4 10 -3
0 -8 -4 -11 -10z"/>
<path d="M8960 10285 c-7 -8 -19 -15 -26 -15 -8 0 -14 -7 -14 -15 0 -8 5 -15
10 -15 13 0 13 -33 -1 -47 -7 -7 -2 -15 15 -27 15 -9 26 -23 26 -31 0 -8 6
-15 14 -15 8 0 16 -7 20 -15 3 -8 12 -12 21 -9 8 3 15 1 15 -5 0 -6 -6 -11
-13 -11 -8 0 -20 -11 -27 -25 -10 -19 -21 -25 -46 -25 -18 0 -35 4 -38 9 -10
15 -46 0 -46 -20 0 -31 -17 -30 -46 3 l-27 33 7 -40 c14 -82 18 -93 32 -99 8
-3 14 -1 14 4 0 6 10 10 21 10 16 0 20 -5 16 -20 -3 -11 -2 -20 2 -20 3 0 11
-10 16 -22 6 -13 20 -28 32 -34 13 -6 32 -19 43 -29 21 -19 27 -11 10 15 -6 9
-5 19 2 28 7 7 13 41 15 75 8 141 25 171 58 101 14 -29 16 -53 11 -123 -3 -47
-8 -104 -11 -127 -6 -37 -4 -43 37 -87 l43 -47 27 23 28 22 -25 48 c-13 27
-27 69 -30 95 -9 67 -54 219 -80 272 -12 25 -25 60 -28 77 -8 42 -45 123 -56
123 -5 0 -14 -7 -21 -15z m-114 -352 c-11 -11 -17 4 -9 23 7 18 8 18 11 1 2
-10 1 -21 -2 -24z"/>
<path d="M2605 9290 c-9 -17 -25 -41 -36 -53 -10 -13 -34 -47 -51 -77 -28 -46
-38 -56 -65 -58 -26 -3 -31 -7 -30 -27 1 -13 -2 -24 -8 -24 -5 0 -9 9 -8 20 2
16 -2 18 -22 13 -13 -3 -41 0 -61 6 -30 10 -39 10 -42 0 -2 -6 -17 -27 -34
-45 -22 -26 -27 -39 -22 -59 6 -24 4 -26 -29 -26 -42 0 -56 -16 -34 -38 11
-11 36 -16 84 -16 60 -1 73 2 108 29 71 52 205 211 205 243 0 5 9 17 19 26 19
18 55 105 47 114 -3 2 -12 -10 -21 -28z"/>
<path d="M8750 9290 c0 -5 7 -10 16 -10 8 0 12 5 9 10 -3 6 -10 10 -16 10 -5
0 -9 -4 -9 -10z"/>
<path d="M5290 9200 c-26 -16 -4 -21 31 -6 31 14 32 15 9 15 -14 1 -32 -3 -40
-9z"/>
<path d="M9063 9192 c19 -20 23 -37 7 -27 -5 3 -18 2 -27 -4 -16 -8 -16 -10
-2 -16 8 -3 28 -1 44 5 l28 11 -23 24 c-27 29 -52 35 -27 7z"/>
<path d="M9115 9189 c10 -17 42 -41 67 -51 28 -12 22 -4 -29 32 -25 19 -43 27
-38 19z"/>
<path d="M6740 9045 c0 -7 6 -18 13 -22 54 -35 167 -192 167 -232 0 -16 -7
-14 -84 23 -74 35 -142 54 -131 35 4 -5 24 -17 46 -26 21 -8 39 -19 39 -24 0
-11 6 -12 -60 6 -73 20 -151 19 -197 -2 -58 -25 -220 -106 -295 -146 -36 -19
-93 -41 -125 -47 -32 -7 -70 -21 -85 -32 -16 -11 -28 -17 -28 -14 0 21 37 74
63 91 17 11 33 27 35 35 4 12 2 12 -19 -1 -39 -26 -146 -158 -197 -244 -31
-54 -77 -110 -139 -171 -73 -72 -93 -97 -93 -119 0 -27 1 -27 45 21 l44 49 -6
-37 c-5 -35 -4 -36 18 -31 13 3 29 9 34 13 16 12 79 20 92 12 6 -4 17 -20 22
-35 9 -23 8 -32 -9 -50 -15 -15 -19 -29 -15 -49 6 -26 4 -28 -25 -28 -18 0
-33 -6 -37 -15 -9 -26 4 -28 48 -11 39 16 43 16 60 0 25 -23 20 -34 -21 -48
-44 -14 -49 -32 -11 -41 39 -8 61 -33 40 -46 -23 -15 -40 -11 -91 23 -42 26
-61 32 -126 35 -56 3 -73 1 -62 -6 8 -6 23 -8 32 -5 10 3 26 1 35 -5 17 -10
17 -10 -2 -11 -29 -1 -59 -26 -51 -45 3 -10 -1 -18 -12 -21 -55 -18 -56 -18
10 -66 35 -25 71 -55 81 -66 18 -20 18 -21 -2 -32 -19 -10 -20 -13 -7 -32 8
-11 12 -26 10 -33 -3 -6 31 -48 76 -93 44 -44 80 -85 80 -91 0 -6 0 -13 0 -16
-1 -18 42 -80 96 -139 35 -38 64 -74 64 -80 0 -7 -7 -21 -15 -32 -8 -10 -15
-30 -15 -44 0 -14 -12 -36 -26 -49 -21 -20 -29 -23 -44 -13 -14 9 -26 8 -52
-5 -54 -26 -59 -32 -46 -56 10 -19 12 -19 23 -4 11 16 15 14 40 -18 20 -27 30
-33 40 -25 9 8 14 5 18 -12 l6 -23 21 23 c11 12 25 22 30 22 4 0 17 3 27 6 10
3 5 -3 -11 -14 -16 -11 -34 -28 -39 -37 -8 -15 -6 -15 15 -4 12 6 25 15 28 18
3 3 22 19 43 34 29 22 35 32 27 42 -8 10 -8 15 1 20 6 4 14 2 18 -4 12 -19
223 211 291 317 33 52 68 108 77 125 19 37 101 145 154 202 47 52 124 163 134
195 4 14 16 39 26 56 23 38 23 44 4 44 -8 0 -15 2 -15 5 0 13 114 115 124 112
19 -6 11 -200 -10 -232 -29 -45 -6 -40 47 11 77 73 100 100 127 147 13 23 40
63 60 90 34 45 39 47 84 47 52 0 71 18 48 44 -8 10 -9 25 -2 49 11 40 4 57
-46 109 -33 35 -35 40 -29 87 5 44 3 54 -19 81 -14 16 -31 30 -37 30 -12 0
-30 23 -54 72 -8 15 -25 29 -41 33 -21 4 -33 18 -51 56 -17 37 -20 54 -12 62
6 6 11 22 11 35 0 19 -4 23 -20 19 -16 -4 -24 4 -39 39 -14 31 -26 44 -40 44
-12 0 -21 6 -21 14 0 7 -7 20 -17 27 -9 8 -25 33 -35 57 -12 26 -29 47 -44 52
-13 5 -24 14 -24 20 0 5 -9 10 -20 10 -11 0 -20 -7 -20 -15z m-42 -493 c13
-10 24 -30 25 -47 2 -25 -2 -31 -21 -33 -34 -5 -62 25 -62 65 0 38 20 44 58
15z m57 -287 c-23 -31 -71 -65 -91 -65 -4 0 20 27 52 60 61 62 86 65 39 5z
m-506 -102 c17 -10 31 -21 31 -25 0 -12 -7 -10 -46 17 -42 29 -31 34 15 8z
m81 -43 c18 -12 2 -12 -25 0 -13 6 -15 9 -5 9 8 0 22 -4 30 -9z m480 0 c0 -5
-4 -10 -10 -10 -5 0 -10 5 -10 10 0 6 5 10 10 10 6 0 10 -4 10 -10z m-410 -20
c11 -8 7 -9 -15 -4 -37 8 -45 14 -19 14 10 0 26 -5 34 -10z m355 0 c-11 -5
-33 -8 -50 -8 l-30 0 30 8 c17 4 39 8 50 8 l20 1 -20 -9z m-142 -27 c-13 -2
-33 -2 -45 0 -13 2 -3 4 22 4 25 0 35 -2 23 -4z m-343 -106 c14 -7 47 -19 73
-26 26 -8 45 -16 42 -19 -2 -3 -1 -10 4 -16 12 -15 -5 -56 -23 -56 -7 0 -16
-7 -20 -15 -4 -11 1 -15 19 -15 13 0 27 5 30 10 9 15 55 12 55 -3 0 -7 -7 -22
-15 -33 -20 -26 -19 -34 6 -34 12 0 47 26 85 65 47 46 67 60 71 50 7 -21 27
-19 48 5 18 20 17 20 -16 21 -40 0 -27 8 64 35 69 20 80 14 71 -44 -8 -52 -39
-102 -62 -102 -10 0 -31 -14 -47 -30 -23 -24 -37 -30 -65 -29 -19 2 -45 -3
-57 -9 -12 -7 -32 -12 -45 -12 -13 0 -34 -12 -47 -25 -27 -29 -45 -23 -37 11
5 17 2 24 -8 24 -25 0 -106 54 -106 70 0 9 -16 31 -35 50 -39 38 -43 54 -17
69 9 6 12 11 6 11 -15 0 -24 60 -10 60 6 0 22 -6 36 -13z m-128 -36 c46 4 83
-10 69 -24 -13 -13 -82 -10 -95 3 -6 6 -20 10 -33 10 -28 0 -29 8 -5 30 16 16
17 16 24 -2 6 -15 16 -19 40 -17z"/>
<path d="M3410 8696 c0 -8 51 -101 61 -111 5 -5 -3 19 -18 53 -15 34 -31 62
-35 62 -5 0 -8 -2 -8 -4z"/>
<path d="M8810 8666 c0 -2 7 -7 16 -10 8 -3 12 -2 9 4 -6 10 -25 14 -25 6z"/>
<path d="M8698 8597 c-74 -41 -117 -82 -169 -158 -52 -77 -82 -160 -73 -203 8
-38 75 -115 123 -140 20 -10 45 -27 56 -37 11 -10 37 -25 58 -34 21 -8 54 -30
75 -48 20 -18 46 -39 56 -47 17 -14 18 -13 12 6 -5 16 3 32 28 63 19 22 42 62
52 88 10 27 21 53 25 58 4 6 14 42 24 81 14 59 15 83 6 139 -12 83 -51 165
-104 222 -50 55 -87 57 -169 10z m128 -132 c10 -39 -1 -58 -26 -45 -11 6 -20
18 -20 28 0 9 -7 26 -15 36 -8 10 -12 23 -9 27 9 16 64 -21 70 -46z m57 -100
c21 -44 21 -69 1 -129 -14 -40 -23 -51 -58 -66 -22 -11 -42 -17 -44 -16 -1 2
6 19 18 38 27 46 50 124 50 171 0 47 11 47 33 2z"/>
<path d="M3499 8536 c11 -21 28 -69 38 -107 17 -67 33 -90 33 -48 0 25 -57
158 -76 179 -8 8 -5 -3 5 -24z"/>
<path d="M3150 8540 c-17 -15 -20 -24 -13 -31 13 -13 53 -3 53 13 0 5 -7 8
-15 4 -8 -3 -15 -1 -15 3 0 5 6 11 13 14 6 2 9 7 6 11 -3 3 -16 -3 -29 -14z"/>
<path d="M7260 8387 c0 -15 27 -43 34 -36 3 2 -4 15 -15 28 -13 16 -19 18 -19
8z"/>
<path d="M10070 8353 c0 -5 7 -28 16 -53 12 -34 14 -65 10 -125 l-7 -80 26 28
c14 15 25 38 25 49 0 48 -23 154 -38 171 -16 18 -32 23 -32 10z"/>
<path d="M7315 8300 c3 -5 8 -10 11 -10 2 0 4 5 4 10 0 6 -5 10 -11 10 -5 0
-7 -4 -4 -10z"/>
<path d="M7378 8253 c7 -3 16 -2 19 1 4 3 -2 6 -13 5 -11 0 -14 -3 -6 -6z"/>
<path d="M4440 8126 c0 -2 7 -9 15 -16 12 -10 15 -10 15 4 0 9 -7 16 -15 16
-8 0 -15 -2 -15 -4z"/>
<path d="M6885 7770 c-3 -5 -1 -10 4 -10 6 0 11 5 11 10 0 6 -2 10 -4 10 -3 0
-8 -4 -11 -10z"/>
<path d="M8220 7535 c-13 -14 -19 -25 -13 -25 6 0 18 11 27 25 9 14 15 25 13
25 -2 0 -14 -11 -27 -25z"/>
<path d="M7995 6869 c-35 -43 -22 -51 15 -9 33 37 34 40 21 40 -5 0 -21 -14
-36 -31z"/>
<path d="M5890 6865 c0 -10 7 -15 18 -13 21 4 19 22 -2 26 -10 2 -16 -3 -16
-13z"/>
<path d="M7873 6758 c-31 -22 -42 -38 -25 -38 12 0 78 59 67 60 -6 0 -25 -10
-42 -22z"/>
<path d="M6623 6664 c-8 -21 13 -42 28 -27 13 13 5 43 -11 43 -6 0 -13 -7 -17
-16z"/>
<path d="M7715 6580 c-3 -5 -1 -10 4 -10 6 0 11 5 11 10 0 6 -2 10 -4 10 -3 0
-8 -4 -11 -10z"/>
<path d="M10607 5739 c-10 -6 -23 -9 -30 -6 -14 4 -36 -21 -37 -42 -1 -38
-129 -372 -209 -544 -42 -92 -39 -109 9 -48 22 28 44 51 48 51 4 -1 18 -7 31
-14 22 -12 59 -11 71 3 9 10 50 31 50 26 0 -3 -11 -28 -25 -55 -28 -56 -29
-60 -15 -60 40 0 135 188 214 424 23 67 8 243 -19 232 -7 -2 -21 6 -29 20 -18
26 -31 29 -59 13z"/>
<path d="M10767 5713 c-10 -16 -37 -117 -33 -121 7 -7 33 51 40 91 6 34 3 47
-7 30z"/>
<path d="M10195 4890 c-3 -5 -1 -10 4 -10 6 0 11 5 11 10 0 6 -2 10 -4 10 -3
0 -8 -4 -11 -10z"/>
<path d="M3215 10260 c-3 -5 1 -10 9 -10 9 0 16 5 16 10 0 6 -4 10 -9 10 -6 0
-13 -4 -16 -10z"/>
<path d="M8199 10592 c-10 -2 -19 -13 -22 -24 -5 -19 11 -125 29 -185 4 -14 2
-23 -5 -23 -6 0 -11 -7 -11 -16 0 -13 7 -15 34 -11 19 3 50 2 71 -3 41 -9 93
4 113 28 26 33 8 114 -37 166 -29 33 -136 76 -172 68z m119 -104 c17 -34 19
-60 5 -65 -7 -3 -17 7 -23 22 -21 54 -6 90 18 43z"/>
<path d="M7984 10511 c-40 -25 -49 -40 -30 -47 23 -9 20 -24 -5 -24 -13 0 -23
8 -26 21 -5 17 -11 20 -36 15 -17 -3 -32 -8 -35 -10 -5 -6 49 -86 59 -86 5 0
6 -12 3 -28 -5 -24 -1 -30 29 -44 33 -16 40 -16 94 -1 32 9 65 22 74 29 12 11
18 11 27 2 6 -6 15 -9 18 -5 8 8 -3 30 -50 100 -10 15 -22 42 -25 60 -6 26
-12 32 -36 35 -17 1 -44 -6 -61 -17z m-74 -81 c0 -5 -4 -10 -10 -10 -5 0 -10
5 -10 10 0 6 5 10 10 10 6 0 10 -4 10 -10z m95 -10 c4 -6 2 -17 -4 -24 -6 -7
-8 -16 -4 -19 9 -10 -10 -8 -26 2 -8 5 -11 16 -6 30 7 22 29 28 40 11z"/>
<path d="M7750 10456 c0 -9 30 -14 35 -6 4 6 -3 10 -14 10 -12 0 -21 -2 -21
-4z"/>
<path d="M3835 8230 c-3 -5 -1 -10 4 -10 6 0 11 5 11 10 0 6 -2 10 -4 10 -3 0
-8 -4 -11 -10z"/>
<path d="M2939 7927 c-13 -5 -60 -23 -104 -38 -68 -25 -73 -28 -36 -24 24 3
55 12 69 19 16 9 34 11 47 6 50 -20 61 -23 80 -21 11 2 25 7 31 12 6 5 43 12
82 15 72 7 92 19 50 29 -45 10 -195 12 -219 2z"/>
<path d="M3597 7919 c7 -7 15 -10 18 -7 3 3 -2 9 -12 12 -14 6 -15 5 -6 -5z"/>
<path d="M3250 7860 c0 -5 5 -10 11 -10 5 0 7 5 4 10 -3 6 -8 10 -11 10 -2 0
-4 -4 -4 -10z"/>
<path d="M2690 7825 c-14 -8 -20 -14 -14 -15 5 0 19 7 30 15 24 18 16 19 -16
0z"/>
<path d="M3230 7786 c0 -2 19 -14 43 -26 23 -12 57 -31 76 -43 22 -13 31 -16
26 -6 -21 34 -145 99 -145 75z"/>
<path d="M2820 7434 c0 -5 129 -94 137 -94 17 0 -90 88 -113 93 -13 2 -24 3
-24 1z"/>
<path d="M2570 7310 c20 -13 33 -13 25 0 -3 6 -14 10 -23 10 -15 0 -15 -2 -2
-10z"/>
<path d="M10108 6913 c-16 -2 -28 -8 -28 -13 0 -17 62 -70 82 -70 18 0 20 4
14 31 -3 17 -6 38 -6 45 0 14 -9 15 -62 7z"/>
<path d="M10106 6261 c-4 -7 -5 -15 -2 -18 9 -9 19 4 14 18 -4 11 -6 11 -12 0z"/>
<path d="M9950 5811 c0 -5 7 -12 16 -15 14 -5 15 -4 4 9 -14 17 -20 19 -20 6z"/>
<path d="M3848 5139 c-10 -5 -18 -17 -18 -24 0 -20 16 -19 24 1 3 8 10 12 16
9 5 -3 10 1 10 9 0 18 -8 20 -32 5z"/>
<path d="M8810 4935 c0 -9 5 -15 11 -13 6 2 11 8 11 13 0 5 -5 11 -11 13 -6 2
-11 -4 -11 -13z"/>
<path d="M7982 2328 c-6 -6 -12 -19 -12 -27 0 -13 2 -13 16 1 9 9 15 21 13 27
-3 9 -8 8 -17 -1z"/>
<path d="M7946 2271 c-4 -7 -5 -15 -2 -18 9 -9 19 4 14 18 -4 11 -6 11 -12 0z"/>
<path d="M8190 1499 c0 -5 5 -7 10 -4 6 3 10 8 10 11 0 2 -4 4 -10 4 -5 0 -10
-5 -10 -11z"/>
</g>
</svg>
